<mxfile host="app.diagrams.net" agent="Mozilla/5.0 (Windows NT 10.0; Win64; x64) AppleWebKit/537.36 (KHTML, like Gecko) Chrome/138.0.0.0 Safari/537.36" version="28.0.6">
  <diagram name="Page-1" id="rlDltZENlWqraDPgRImk">
    <mxGraphModel dx="580" dy="613" grid="1" gridSize="10" guides="1" tooltips="1" connect="1" arrows="1" fold="1" page="1" pageScale="1" pageWidth="1400" pageHeight="850" math="0" shadow="0">
      <root>
        <mxCell id="0" />
        <mxCell id="1" parent="0" />
        <mxCell id="Nnbi9fZCsUZHgMgxJqz5-24" style="edgeStyle=orthogonalEdgeStyle;rounded=0;orthogonalLoop=1;jettySize=auto;html=1;entryX=0.591;entryY=0.996;entryDx=0;entryDy=0;entryPerimeter=0;" edge="1" parent="1" source="Nnbi9fZCsUZHgMgxJqz5-8" target="Nnbi9fZCsUZHgMgxJqz5-1">
          <mxGeometry relative="1" as="geometry">
            <mxPoint x="490.0000000000001" y="380" as="targetPoint" />
            <Array as="points">
              <mxPoint x="695" y="400" />
              <mxPoint x="491" y="400" />
              <mxPoint x="491" y="380" />
              <mxPoint x="491" y="380" />
            </Array>
          </mxGeometry>
        </mxCell>
        <mxCell id="Nnbi9fZCsUZHgMgxJqz5-8" value="EMPLOYEE" style="rounded=0;whiteSpace=wrap;html=1;" vertex="1" parent="1">
          <mxGeometry x="650" y="285.64" width="90" height="40" as="geometry" />
        </mxCell>
        <mxCell id="Nnbi9fZCsUZHgMgxJqz5-20" value="" style="edgeStyle=orthogonalEdgeStyle;rounded=0;orthogonalLoop=1;jettySize=auto;html=1;" edge="1" parent="1" source="Nnbi9fZCsUZHgMgxJqz5-1" target="Nnbi9fZCsUZHgMgxJqz5-8">
          <mxGeometry relative="1" as="geometry" />
        </mxCell>
        <mxCell id="Nnbi9fZCsUZHgMgxJqz5-22" style="edgeStyle=orthogonalEdgeStyle;rounded=0;orthogonalLoop=1;jettySize=auto;html=1;entryX=0.5;entryY=0;entryDx=0;entryDy=0;" edge="1" parent="1" source="Nnbi9fZCsUZHgMgxJqz5-1" target="Nnbi9fZCsUZHgMgxJqz5-8">
          <mxGeometry relative="1" as="geometry">
            <Array as="points">
              <mxPoint x="490" y="200" />
              <mxPoint x="695" y="200" />
            </Array>
          </mxGeometry>
        </mxCell>
        <mxCell id="Nnbi9fZCsUZHgMgxJqz5-26" style="edgeStyle=orthogonalEdgeStyle;rounded=0;orthogonalLoop=1;jettySize=auto;html=1;entryX=0.5;entryY=1;entryDx=0;entryDy=0;" edge="1" parent="1" source="Nnbi9fZCsUZHgMgxJqz5-1" target="Nnbi9fZCsUZHgMgxJqz5-10">
          <mxGeometry relative="1" as="geometry">
            <Array as="points">
              <mxPoint x="479" y="400" />
              <mxPoint x="240" y="400" />
            </Array>
          </mxGeometry>
        </mxCell>
        <mxCell id="Nnbi9fZCsUZHgMgxJqz5-1" value="" style="ellipse;whiteSpace=wrap;html=1;aspect=fixed;" vertex="1" parent="1">
          <mxGeometry x="413.3333333333333" y="240" width="131.2820512820513" height="131.2820512820513" as="geometry" />
        </mxCell>
        <mxCell id="Nnbi9fZCsUZHgMgxJqz5-3" value="" style="endArrow=none;html=1;rounded=0;" edge="1" parent="1">
          <mxGeometry width="50" height="50" relative="1" as="geometry">
            <mxPoint x="415.3333333333333" y="289.73" as="sourcePoint" />
            <mxPoint x="542" y="290" as="targetPoint" />
          </mxGeometry>
        </mxCell>
        <mxCell id="Nnbi9fZCsUZHgMgxJqz5-4" value="0" style="text;html=1;align=center;verticalAlign=middle;whiteSpace=wrap;rounded=0;" vertex="1" parent="1">
          <mxGeometry x="448.97" y="260" width="60" height="30" as="geometry" />
        </mxCell>
        <mxCell id="Nnbi9fZCsUZHgMgxJqz5-5" value="&lt;font style=&quot;font-size: 6px;&quot;&gt;Booking System&lt;/font&gt;&lt;div&gt;&lt;font style=&quot;font-size: 6px;&quot;&gt;LeFern Baguio Hotal&lt;/font&gt;&lt;/div&gt;" style="text;html=1;align=center;verticalAlign=middle;whiteSpace=wrap;rounded=0;" vertex="1" parent="1">
          <mxGeometry x="433.97" y="300" width="90" height="40" as="geometry" />
        </mxCell>
        <mxCell id="Nnbi9fZCsUZHgMgxJqz5-16" style="edgeStyle=orthogonalEdgeStyle;rounded=0;orthogonalLoop=1;jettySize=auto;html=1;exitX=0.5;exitY=0;exitDx=0;exitDy=0;entryX=0.5;entryY=0;entryDx=0;entryDy=0;" edge="1" parent="1" source="Nnbi9fZCsUZHgMgxJqz5-10" target="Nnbi9fZCsUZHgMgxJqz5-1">
          <mxGeometry relative="1" as="geometry">
            <Array as="points">
              <mxPoint x="240" y="200" />
              <mxPoint x="479" y="200" />
            </Array>
          </mxGeometry>
        </mxCell>
        <mxCell id="Nnbi9fZCsUZHgMgxJqz5-18" value="" style="edgeStyle=orthogonalEdgeStyle;rounded=0;orthogonalLoop=1;jettySize=auto;html=1;entryX=0;entryY=0.5;entryDx=0;entryDy=0;" edge="1" parent="1" source="Nnbi9fZCsUZHgMgxJqz5-10" target="Nnbi9fZCsUZHgMgxJqz5-1">
          <mxGeometry relative="1" as="geometry">
            <mxPoint x="358.3061224489795" y="260" as="targetPoint" />
          </mxGeometry>
        </mxCell>
        <mxCell id="Nnbi9fZCsUZHgMgxJqz5-10" value="CUSTOMER" style="whiteSpace=wrap;html=1;" vertex="1" parent="1">
          <mxGeometry x="180.00435897435895" y="275.64307692307693" width="120" height="60" as="geometry" />
        </mxCell>
        <mxCell id="Nnbi9fZCsUZHgMgxJqz5-17" value="Customer Info" style="text;html=1;align=center;verticalAlign=middle;resizable=0;points=[];autosize=1;strokeColor=none;fillColor=none;" vertex="1" parent="1">
          <mxGeometry x="280" y="178" width="100" height="30" as="geometry" />
        </mxCell>
        <mxCell id="Nnbi9fZCsUZHgMgxJqz5-19" value="Reservation Info" style="text;html=1;align=center;verticalAlign=middle;resizable=0;points=[];autosize=1;strokeColor=none;fillColor=none;" vertex="1" parent="1">
          <mxGeometry x="300" y="280" width="110" height="30" as="geometry" />
        </mxCell>
        <mxCell id="Nnbi9fZCsUZHgMgxJqz5-21" value="Reservation Info" style="text;html=1;align=center;verticalAlign=middle;resizable=0;points=[];autosize=1;strokeColor=none;fillColor=none;" vertex="1" parent="1">
          <mxGeometry x="535" y="278" width="110" height="30" as="geometry" />
        </mxCell>
        <mxCell id="Nnbi9fZCsUZHgMgxJqz5-23" value="Customer Info" style="text;html=1;align=center;verticalAlign=middle;resizable=0;points=[];autosize=1;strokeColor=none;fillColor=none;" vertex="1" parent="1">
          <mxGeometry x="510" y="168" width="100" height="30" as="geometry" />
        </mxCell>
        <mxCell id="Nnbi9fZCsUZHgMgxJqz5-25" value="Confirmation Details" style="text;html=1;align=center;verticalAlign=middle;resizable=0;points=[];autosize=1;strokeColor=none;fillColor=none;" vertex="1" parent="1">
          <mxGeometry x="515" y="378" width="130" height="30" as="geometry" />
        </mxCell>
        <mxCell id="Nnbi9fZCsUZHgMgxJqz5-27" value="Confirmation Details" style="text;html=1;align=center;verticalAlign=middle;resizable=0;points=[];autosize=1;strokeColor=none;fillColor=none;" vertex="1" parent="1">
          <mxGeometry x="275" y="378" width="130" height="30" as="geometry" />
        </mxCell>
      </root>
    </mxGraphModel>
  </diagram>
</mxfile>
